<svg height="512pt" viewBox="0 0 512 512" width="512pt" xmlns="http://www.w3.org/2000/svg"><path d="m150 166c5.519531 0 10-4.480469 10-10s-4.480469-10-10-10-10 4.480469-10 10 4.480469 10 10 10zm0 0"/><path d="m193.132812 154.804688c-5.078124-2.167969-10.953124.183593-13.125 5.261718-2.171874 5.078125.179688 10.953125 5.257813 13.128906 33.25 14.226563 54.734375 46.730469 54.734375 82.804688 0 49.625-40.375 90-90 90s-90-40.375-90-90c0-36.074219 21.484375-68.578125 54.734375-82.804688 5.078125-2.175781 7.429687-8.050781 5.257813-13.128906-2.171876-5.078125-8.054688-7.433594-13.125-5.261718-40.621094 17.382812-66.867188 57.101562-66.867188 101.195312 0 60.652344 49.347656 110 110 110s110-49.347656 110-110c0-44.09375-26.246094-83.8125-66.867188-101.195312zm0 0"/><path d="m151 265.289062c5.515625 0 10 4.488282 10 10 0 5.515626-4.484375 10-10 10-4.273438 0-8.882812-2.6875-12.984375-7.5625-3.554687-4.230468-9.863281-4.773437-14.089844-1.21875-4.226562 3.550782-4.773437 9.859376-1.21875 14.085938 5.34375 6.359375 11.632813 10.792969 18.292969 13.023438v11.671874c0 5.523438 4.476562 10 10 10s10-4.476562 10-10v-11.71875c11.640625-4.128906 20-15.242187 20-28.28125 0-16.542968-13.457031-30-30-30-5.515625 0-10-4.484374-10-10 0-5.511718 4.484375-10 10-10 3.542969 0 7.28125 1.808594 10.816406 5.226563 3.96875 3.84375 10.296875 3.738281 14.140625-.230469 3.839844-3.96875 3.734375-10.300781-.234375-14.140625-5.074218-4.910156-10.152344-7.691406-14.722656-9.207031v-11.648438c0-5.523437-4.476562-10-10-10s-10 4.476563-10 10v11.722657c-11.640625 4.125-20 15.242187-20 28.277343 0 16.542969 13.457031 30 30 30zm0 0"/><path d="m422 180c49.625 0 90-40.375 90-90s-40.375-90-90-90-90 40.375-90 90c0 13.300781 2.933594 26.347656 8.53125 38.257812l-68.292969 40.90625c-28.273437-39.671874-73.640625-63.164062-122.238281-63.164062-82.710938 0-150 67.289062-150 150s67.289062 150 150 150c48.519531 0 93.921875-23.429688 122.238281-63.164062l68.292969 40.90625c-5.597656 11.910156-8.53125 24.957031-8.53125 38.257812 0 49.625 40.375 90 90 90s90-40.375 90-90-40.375-90-90-90c-28.132812 0-54.015625 12.8125-71.003906 34.695312l-68.257813-40.882812c11.316407-21.445312 17.261719-45.378906 17.261719-69.8125s-5.945312-48.367188-17.261719-69.8125l68.257813-40.882812c16.988281 21.882812 42.871094 34.695312 71.003906 34.695312zm0-160c38.597656 0 70 31.402344 70 70s-31.402344 70-70 70c-39.511719 0-70-32.09375-70-70 0-38.597656 31.402344-70 70-70zm-272 366c-71.683594 0-130-58.316406-130-130s58.316406-130 130-130c45.375 0 86.753906 23.136719 110.691406 61.898438 12.632813 20.433593 19.308594 43.984374 19.308594 68.101562s-6.675781 47.667969-19.308594 68.101562v.003907c-23.9375 38.757812-65.316406 61.894531-110.691406 61.894531zm272-34c38.597656 0 70 31.402344 70 70s-31.402344 70-70 70-70-31.402344-70-70c0-37.976562 30.558594-70 70-70zm0 0"/></svg>